<svg width="288" height="288" viewBox="0 0 288 288" fill="none" xmlns="http://www.w3.org/2000/svg">
<g id="utp/img-2">
<rect id="Rectangle" x="105.6" y="201.6" width="19.2" height="9.6" fill="#0A75E5"/>
<rect id="Rectangle_2" x="134.4" y="201.6" width="14.4" height="9.6" fill="#0A75E5"/>
<rect id="Rectangle_3" x="158.4" y="201.6" width="14.4" height="9.6" fill="#0A75E5"/>
<rect id="Rectangle_4" x="182.4" y="201.6" width="14.4" height="9.6" fill="#0A75E5"/>
<rect id="Rectangle_5" x="206.4" y="201.6" width="14.4" height="9.6" fill="#0A75E5"/>
<rect id="Rectangle_6" x="230.4" y="201.6" width="14.4" height="9.6" fill="#0A75E5"/>
<rect id="Rectangle_7" x="254.4" y="201.6" width="14.4" height="9.6" fill="#0A75E5"/>
<rect id="Rectangle_8" x="105.6" y="220.8" width="24" height="9.6" fill="#0A75E5"/>
<rect id="Rectangle_9" x="139.2" y="220.8" width="14.4" height="9.6" fill="#0A75E5"/>
<rect id="Rectangle_10" x="163.2" y="220.8" width="14.4" height="9.6" fill="#0A75E5"/>
<rect id="Rectangle_11" x="187.2" y="220.8" width="14.4" height="9.6" fill="#0A75E5"/>
<rect id="Rectangle_12" x="211.2" y="220.8" width="14.4" height="9.6" fill="#0A75E5"/>
<rect id="Rectangle_13" x="235.2" y="220.8" width="33.6" height="9.6" fill="#0A75E5"/>
<rect id="Rectangle_14" x="105.6" y="240" width="28.8" height="9.6" fill="#0A75E5"/>
<rect id="Rectangle_15" x="144" y="240" width="14.4" height="9.6" fill="#0A75E5"/>
<rect id="Rectangle_16" x="168" y="240" width="14.4" height="9.6" fill="#0A75E5"/>
<rect id="Rectangle_17" x="192" y="240" width="14.4" height="9.6" fill="#0A75E5"/>
<rect id="Rectangle_18" x="216" y="240" width="14.4" height="9.6" fill="#0A75E5"/>
<rect id="Rectangle_19" x="240" y="240" width="9.6" height="9.6" fill="#0A75E5"/>
<rect id="Rectangle_20" x="105.6" y="259.2" width="19.2" height="9.6" fill="#0A75E5"/>
<rect id="Rectangle_21" x="134.4" y="259.2" width="9.6" height="9.6" fill="#0A75E5"/>
<rect id="Rectangle_22" x="153.6" y="259.2" width="57.6" height="9.6" fill="#0A75E5"/>
<rect id="Rectangle_23" x="220.8" y="259.2" width="9.6" height="9.6" fill="#0A75E5"/>
<rect id="Rectangle_24" x="240" y="259.2" width="9.6" height="9.6" fill="#0A75E5"/>
<rect id="Rectangle_25" x="259.2" y="259.2" width="9.6" height="9.6" fill="#0A75E5"/>
<rect id="Rectangle_26" x="259.2" y="240" width="9.6" height="9.6" fill="#0A75E5"/>
<path id="Shape" fill-rule="evenodd" clip-rule="evenodd" d="M287.673 36.8047L287.693 36.864C287.832 37.2672 287.914 37.6752 287.938 38.0976C287.942 38.1456 287.955 38.1905 287.968 38.2353C287.984 38.289 288 38.3424 288 38.4V187.2V283.2C288 285.85 285.85 288 283.2 288H91.2C88.5504 288 86.4 285.85 86.4 283.2V268.8H76.8C74.1552 268.8 72 270.955 72 273.6C72 281.539 65.5392 288 57.6 288H19.2V278.4H57.6C60.2448 278.4 62.4 276.245 62.4 273.6C62.4 265.661 68.8608 259.2 76.8 259.2H86.4V244.8H4.8C2.1504 244.8 3.73047e-06 242.65 3.73047e-06 240V144V91.2C3.73047e-06 88.5504 2.1504 86.4 4.8 86.4H14.4V54.7872L1.4064 41.7936C-0.254396 40.1328 -0.470396 37.5168 0.892804 35.6112L24.8928 2.0112C26.6976 -0.5136 30.9024 -0.5136 32.7072 2.0112L56.7072 35.6112C58.0704 37.5168 57.8544 40.1328 56.1936 41.7936L43.2 54.7872V86.4H62.4V67.2C62.4 53.9664 73.1664 43.2 86.4 43.2H110.4V4.8C110.4 2.1504 112.55 0 115.2 0H249.6C249.651 0 249.699 0.0135981 249.747 0.0270427C249.789 0.038858 249.831 0.0505548 249.874 0.0528C250.31 0.0816 250.733 0.1632 251.146 0.3072L251.206 0.326583C251.333 0.367309 251.457 0.406888 251.578 0.4608C252.086 0.696 252.576 0.9936 252.989 1.4064L286.589 35.0064C287.002 35.4192 287.294 35.904 287.53 36.4128C287.582 36.5203 287.616 36.6278 287.651 36.7371L287.651 36.7374L287.673 36.8047ZM254.4 33.6H271.613L254.4 16.3872V33.6ZM120 9.6H244.8V38.4C244.8 41.0496 246.95 43.2 249.6 43.2H278.4V182.4H230.4V144V91.2C230.4 88.5504 228.25 86.4 225.6 86.4H168V67.2C168 53.9664 157.234 43.2 144 43.2H120V9.6ZM86.4 52.8C78.4608 52.8 72 59.2608 72 67.2V86.4H81.6V67.2C81.6 64.5504 83.7504 62.4 86.4 62.4H144C146.65 62.4 148.8 64.5504 148.8 67.2V86.4H158.4V67.2C158.4 59.2608 151.939 52.8 144 52.8H115.2H86.4ZM120 86.4V72H139.2V86.4H120ZM91.2 72V86.4H110.4V72H91.2ZM24 19.7808V33.6H33.6V19.7808L46.5312 37.8816L36.4128 48H21.1872L11.0688 37.8816L24 19.7808ZM33.6 57.6H24V86.4H33.6V57.6ZM19.2 96H38.4H67.2H86.4H144H163.2H220.8V142.013L209.213 153.6H134.4V139.2C134.4 136.55 132.25 134.4 129.6 134.4H100.8C98.1504 134.4 96 136.55 96 139.2V153.6H21.1872L9.6 142.013V96H19.2ZM105.6 144V153.6H124.8V144H105.6ZM9.6 235.2V155.587L15.8064 161.794C16.704 162.696 17.928 163.2 19.2 163.2H100.8H129.6H211.2C212.472 163.2 213.696 162.696 214.594 161.794L220.8 155.587V182.4H91.2C88.5504 182.4 86.4 184.55 86.4 187.2V235.2H9.6ZM96 278.4H278.4V192H225.6H96V240V278.4Z" fill="#92959D"/>
<rect id="Rectangle_27" x="240" y="86.4" width="28.8" height="9.6" fill="#92959D"/>
<rect id="Rectangle_28" x="240" y="105.6" width="28.8" height="9.6" fill="#92959D"/>
<rect id="Rectangle_29" x="240" y="124.8" width="28.8" height="9.6" fill="#92959D"/>
<rect id="Rectangle_30" x="240" y="144" width="28.8" height="9.6" fill="#92959D"/>
<rect id="Rectangle_31" x="240" y="163.2" width="28.8" height="9.6" fill="#92959D"/>
<path id="Path" d="M192 57.6C193.234 57.6 194.467 57.1248 195.398 56.1936L211.56 40.032L232.205 56.5488L238.2 49.0512L214.2 29.8512C212.294 28.32 209.53 28.4784 207.806 30.2064L191.645 46.368L171 29.8512L165.005 37.3488L189.005 56.5488C189.883 57.2544 190.944 57.6 192 57.6Z" fill="#92959D"/>
<rect id="Rectangle_32" x="182.4" y="67.2" width="86.4" height="9.6" fill="#92959D"/>
<rect id="Rectangle_33" y="278.4" width="9.6" height="9.6" fill="#92959D"/>
<rect id="Rectangle_34" x="19.2" y="216" width="9.6" height="9.6" fill="#92959D"/>
<rect id="Rectangle_35" x="38.4" y="216" width="9.6" height="9.6" fill="#92959D"/>
<rect id="Rectangle_36" x="57.6" y="216" width="9.6" height="9.6" fill="#92959D"/>
</g>
</svg>
