<svg width="56" height="56" viewBox="0 0 56 56" fill="none" xmlns="http://www.w3.org/2000/svg">
<path fill-rule="evenodd" clip-rule="evenodd" d="M53.4865 39.2H55.0667C55.5819 39.2 56 39.6181 56 40.1343V45.7343C56 46.2495 55.5819 46.6676 55.0667 46.6676H53.4847C53.354 47.04 53.2037 47.4049 53.0357 47.7577L54.1511 48.874C54.516 49.2389 54.516 49.8288 54.1511 50.1937L50.1919 54.1529C49.8269 54.5179 49.2371 54.5179 48.8721 54.1529L47.7559 53.0376C47.404 53.2047 47.0391 53.3549 46.6657 53.4865V55.0667C46.6657 55.5819 46.2476 56 45.7324 56H40.1324C39.6172 56 39.1991 55.5819 39.1991 55.0667V53.4856C38.8267 53.3549 38.4617 53.2047 38.1089 53.0367L36.9927 54.152C36.6277 54.5169 36.0379 54.5169 35.6729 54.152L31.7137 50.1928C31.3488 49.8279 31.3488 49.238 31.7137 48.8731L32.8291 47.7568C32.662 47.4049 32.5117 47.04 32.3801 46.6667H30.8C30.2848 46.6667 29.8667 46.2485 29.8667 45.7333V42.9333H0.933333C0.418133 42.9333 0 42.5152 0 42V23.3333V10.2667C0 9.75147 0.418133 9.33333 0.933333 9.33333H13.0667V4.66667C13.0667 2.09347 15.1601 0 17.7333 0H28.9333C31.5065 0 33.6 2.09347 33.6 4.66667V9.33333H45.7343C46.2495 9.33333 46.6676 9.75147 46.6676 10.2667V23.3333V30.8V32.3811C47.04 32.5117 47.4049 32.662 47.7577 32.83L48.874 31.7147C49.2389 31.3497 49.8288 31.3497 50.1937 31.7147L54.1529 35.6739C54.5179 36.0388 54.5179 36.6287 54.1529 36.9936L53.0376 38.1099C53.2047 38.4617 53.3549 38.8267 53.4865 39.2ZM17.7333 1.86667C16.1896 1.86667 14.9333 3.12293 14.9333 4.66667V9.33333H16.8V4.66667C16.8 4.15147 17.2181 3.73333 17.7333 3.73333H28.9333C29.4485 3.73333 29.8667 4.15147 29.8667 4.66667V9.33333H31.7333V4.66667C31.7333 3.12293 30.4771 1.86667 28.9333 1.86667H17.7333ZM18.6667 9.33333V5.6H28V9.33333H18.6667ZM14 11.2H1.86667V22.9469L4.11973 25.2H19.6V22.4C19.6 21.8848 20.0181 21.4667 20.5333 21.4667H26.1333C26.6485 21.4667 27.0667 21.8848 27.0667 22.4V25.2H42.5469L44.8 22.9469V11.2H32.6667H28.9333H17.7333H14ZM21.4667 27.0667H25.2V28.9333H21.4667V27.0667ZM21.4667 23.3333V25.2H25.2V23.3333H21.4667ZM1.86667 41.0657V25.5864L3.07347 26.7932C3.248 26.9687 3.486 27.0667 3.73333 27.0667H19.6V29.8667C19.6 30.3819 20.0181 30.8 20.5333 30.8H26.1333C26.6485 30.8 27.0667 30.3819 27.0667 29.8667V27.0667H42.9333C43.1807 27.0667 43.4187 26.9687 43.5932 26.7932L44.8 25.5864V29.8667H40.1333C39.6181 29.8667 39.2 30.2848 39.2 30.8V32.3801C38.8267 32.5117 38.4617 32.662 38.1099 32.8291L36.9936 31.7137C36.6287 31.3488 36.0388 31.3488 35.6739 31.7137L31.7147 35.6729C31.3497 36.0379 31.3497 36.6277 31.7147 36.9927L32.83 38.1089C32.662 38.4617 32.5117 38.8267 32.3811 39.1991H30.8C30.2848 39.1991 29.8667 39.6172 29.8667 40.1324V41.0657H1.86667ZM52.8033 44.8H54.1333V41.0667H52.8033C52.3861 41.0667 52.0193 40.7895 51.9064 40.3891C51.7057 39.6816 51.4285 39.0077 51.0813 38.3871C50.8779 38.0221 50.9413 37.5667 51.2363 37.2717L52.1733 36.3337L49.5339 33.6943L48.5959 34.6313C48.3 34.9263 47.8445 34.9907 47.4805 34.7863C46.8589 34.4391 46.186 34.1619 45.4785 33.9612C45.0772 33.8473 44.8 33.4805 44.8 33.0633V31.7333H41.0667V33.0633C41.0667 33.4805 40.7895 33.8473 40.3891 33.9603C39.6816 34.1609 39.0077 34.4381 38.3871 34.7853C38.0221 34.9897 37.5667 34.9253 37.2717 34.6304L36.3337 33.6933L33.6943 36.3328L34.6313 37.2708C34.9263 37.5667 34.9897 38.0212 34.7863 38.3861C34.4391 39.0077 34.1619 39.6807 33.9612 40.3881C33.8473 40.7895 33.4805 41.0667 33.0633 41.0667H31.7333V42V44.8H33.0633C33.4805 44.8 33.8473 45.0772 33.9603 45.4776C34.1609 46.1851 34.4381 46.8589 34.7853 47.4796C34.9888 47.8445 34.9253 48.3 34.6304 48.5949L33.6933 49.5329L36.3328 52.1724L37.2708 51.2353C37.5667 50.9404 38.0212 50.8769 38.3861 51.0804C39.0077 51.4276 39.6807 51.7048 40.3881 51.9055C40.7895 52.0193 41.0667 52.3861 41.0667 52.8033V54.1333H44.8V52.8033C44.8 52.3861 45.0772 52.0193 45.4776 51.9064C46.1851 51.7057 46.8589 51.4285 47.4796 51.0813C47.8436 50.8779 48.3 50.9413 48.5949 51.2363L49.5329 52.1733L52.1724 49.5339L51.2353 48.5959C50.9404 48.3 50.8769 47.8455 51.0804 47.4805C51.4276 46.8589 51.7048 46.186 51.9055 45.4785C52.0193 45.0772 52.3861 44.8 52.8033 44.8Z" fill="white"/>
<path fill-rule="evenodd" clip-rule="evenodd" d="M36.4 42.9334C36.4 39.3307 39.3307 36.4 42.9333 36.4C46.536 36.4 49.4667 39.3307 49.4667 42.9334C49.4667 46.536 46.536 49.4667 42.9333 49.4667C39.3307 49.4667 36.4 46.536 36.4 42.9334ZM38.2667 42.9334C38.2667 45.5066 40.3601 47.6 42.9333 47.6C45.5065 47.6 47.6 45.5066 47.6 42.9334C47.6 40.3602 45.5065 38.2667 42.9333 38.2667C40.3601 38.2667 38.2667 40.3602 38.2667 42.9334Z" fill="white"/>
<rect x="3.73334" y="37.3334" width="1.86667" height="1.86667" fill="white"/>
<rect x="7.46667" y="37.3334" width="1.86667" height="1.86667" fill="white"/>
<rect x="11.2" y="37.3334" width="1.86667" height="1.86667" fill="white"/>
</svg>
