<svg width="56" height="56" viewBox="0 0 56 56" fill="none" xmlns="http://www.w3.org/2000/svg">
<path fill-rule="evenodd" clip-rule="evenodd" d="M48.615 24.3333H52.1667C52.6267 24.3333 53 24.7067 53 25.1667V36.8333C53 37.2933 52.6267 37.6667 52.1667 37.6667H48.615C48.2592 38.7708 47.8158 39.8417 47.2925 40.865L49.8025 43.3742C49.9592 43.53 50.0467 43.7425 50.0467 43.9633C50.0467 44.1842 49.9592 44.3958 49.8025 44.5525L41.5525 52.8025C41.3967 52.9592 41.1842 53.0467 40.9633 53.0467C40.7425 53.0467 40.5308 52.9592 40.3742 52.8025L37.865 50.2925C36.8417 50.8158 35.7708 51.2592 34.6667 51.615V55.1667C34.6667 55.6267 34.2933 56 33.8333 56H22.1667C21.7067 56 21.3333 55.6267 21.3333 55.1667V51.615C20.2292 51.2592 19.1583 50.8158 18.135 50.2925L15.6258 52.8025C15.3133 53.115 14.76 53.115 14.4475 52.8025L6.1975 44.5525C6.04083 44.3967 5.95333 44.1842 5.95333 43.9633C5.95333 43.7425 6.04083 43.5308 6.1975 43.3742L8.7075 40.865C8.18417 39.8417 7.74083 38.7708 7.385 37.6667H3.83333C3.37333 37.6667 3 37.2933 3 36.8333V25.1667C3 24.7067 3.37333 24.3333 3.83333 24.3333H7.385C7.74083 23.2292 8.18417 22.1583 8.7075 21.135L6.1975 18.6258C6.04083 18.47 5.95333 18.2575 5.95333 18.0367C5.95333 17.8158 6.04083 17.6042 6.1975 17.4475L14.4475 9.1975C14.6033 9.04083 14.8158 8.95333 15.0367 8.95333C15.2575 8.95333 15.4692 9.04083 15.6258 9.1975L18.135 11.7075C19.1583 11.1842 20.2292 10.7408 21.3333 10.385V6.83333C21.3333 6.37333 21.7067 6 22.1667 6H33.8333C34.2933 6 34.6667 6.37333 34.6667 6.83333V10.385C35.7708 10.7408 36.8417 11.1842 37.865 11.7075L40.3742 9.1975C40.6867 8.885 41.24 8.885 41.5525 9.1975L49.8025 17.4475C49.9592 17.6033 50.0467 17.8158 50.0467 18.0367C50.0467 18.2575 49.9592 18.4692 49.8025 18.6258L47.2925 21.135C47.8158 22.1583 48.2592 23.2292 48.615 24.3333ZM48 36H51.3333V26H48C47.6292 26 47.3033 25.7558 47.2 25.4C46.7917 23.9975 46.2325 22.6458 45.5383 21.3825C45.3592 21.0583 45.4175 20.6542 45.6792 20.3925L48.035 18.0367L40.9633 10.965L38.6075 13.3208C38.3458 13.5825 37.9425 13.64 37.6175 13.4617C36.3542 12.7675 35.0025 12.2083 33.6 11.8C33.2442 11.6967 33 11.37 33 11V7.66667H23V11C23 11.3708 22.7558 11.6967 22.4 11.8C20.9975 12.2083 19.6458 12.7675 18.3825 13.4617C18.0567 13.6408 17.6542 13.5825 17.3925 13.3208L15.0367 10.965L7.965 18.0367L10.3208 20.3925C10.5825 20.6542 10.64 21.0575 10.4617 21.3825C9.7675 22.6458 9.20833 23.9975 8.8 25.4C8.69667 25.7558 8.37 26 8 26H4.66667V36H8C8.37083 36 8.69667 36.2442 8.8 36.6C9.20833 38.0025 9.7675 39.3542 10.4617 40.6175C10.6408 40.9417 10.5825 41.3458 10.3208 41.6075L7.965 43.9633L15.0367 51.035L17.3925 48.6792C17.6533 48.4175 18.0567 48.36 18.3825 48.5383C19.6458 49.2325 20.9975 49.7917 22.4 50.2C22.7558 50.3033 23 50.63 23 51V54.3333H33V51C33 50.6292 33.2442 50.3033 33.6 50.2C35.0025 49.7917 36.3542 49.2325 37.6175 48.5383C37.9425 48.36 38.3458 48.4175 38.6075 48.6792L40.9633 51.035L48.035 43.9633L45.6792 41.6075C45.4175 41.3458 45.36 40.9425 45.5383 40.6175C46.2325 39.3542 46.7917 38.0025 47.2 36.6C47.3033 36.2442 47.63 36 48 36Z" fill="#0F8AEA"/>
<path fill-rule="evenodd" clip-rule="evenodd" d="M13.8333 31C13.8333 23.1884 20.1883 16.8334 28 16.8334C35.8117 16.8334 42.1667 23.1884 42.1667 31C42.1667 34.27 41.0425 37.2767 39.1742 39.6742C39.1709 39.6791 39.169 39.6844 39.1672 39.6896C39.1653 39.695 39.1634 39.7004 39.16 39.705C39.1504 39.7177 39.1396 39.7293 39.1289 39.7408L39.1288 39.7408C39.1192 39.7512 39.1095 39.7615 39.1008 39.7725C38.7917 40.1634 38.4658 40.54 38.1175 40.8959L38.1035 40.9119C38.0943 40.9226 38.085 40.9334 38.075 40.9434C37.7158 41.3067 37.3383 41.6509 36.9425 41.9742C36.8688 42.0348 36.7922 42.0904 36.7156 42.1458L36.7155 42.1458L36.7154 42.1459L36.7152 42.1461C36.6645 42.1827 36.6139 42.2194 36.5642 42.2575C36.3025 42.4575 36.0392 42.6542 35.7642 42.835C35.605 42.9398 35.4418 43.036 35.278 43.1326L35.2779 43.1326L35.175 43.1934C34.9517 43.325 34.7275 43.4542 34.4967 43.5742C34.2792 43.6875 34.0592 43.7917 33.8358 43.8934C33.605 43.9984 33.3708 44.0959 33.1342 44.1884C32.9108 44.2759 32.6867 44.3609 32.4583 44.4367C32.1992 44.5225 31.9358 44.595 31.6708 44.6667C31.6203 44.6802 31.5698 44.694 31.5194 44.7077L31.5194 44.7077L31.5194 44.7078C31.3555 44.7524 31.192 44.7971 31.025 44.8334C30.7125 44.9009 30.3942 44.9492 30.0742 44.9967C30.0089 45.0064 29.944 45.0175 29.8792 45.0285C29.7658 45.0478 29.6525 45.067 29.5375 45.0792C29.0317 45.1342 28.52 45.1667 28 45.1667C27.48 45.1667 26.9683 45.1342 26.4625 45.0825C26.3481 45.0699 26.2354 45.0509 26.1226 45.0319L26.1225 45.0319L26.1224 45.0319L26.1223 45.0319L26.1222 45.0318C26.0569 45.0208 25.9915 45.0098 25.9258 45C25.6067 44.9534 25.2875 44.905 24.975 44.8367C24.808 44.8004 24.6445 44.7558 24.4806 44.7111C24.4302 44.6973 24.3798 44.6836 24.3292 44.67C24.0642 44.5992 23.8 44.5259 23.5417 44.44C23.3133 44.3642 23.09 44.2792 22.8658 44.1917C22.6283 44.0992 22.395 44.0017 22.1642 43.8967C21.9417 43.795 21.7208 43.69 21.5033 43.5775C21.2725 43.4575 21.0483 43.3284 20.825 43.1967C20.7845 43.1726 20.744 43.1487 20.7034 43.1248L20.7027 43.1243L20.7016 43.1237C20.5449 43.0312 20.3883 42.9387 20.2358 42.8384C19.96 42.6567 19.6975 42.46 19.4358 42.2609C19.3871 42.2237 19.3377 42.1878 19.2883 42.152L19.2883 42.152C19.2103 42.0953 19.1325 42.0388 19.0575 41.9775C18.6608 41.6542 18.2833 41.31 17.925 40.9467L17.911 40.9307L17.911 40.9307C17.9018 40.9199 17.8925 40.9092 17.8825 40.8992C17.535 40.5434 17.2083 40.1667 16.8992 39.7759C16.8908 39.7657 16.8819 39.7561 16.8731 39.7466L16.8731 39.7466C16.8617 39.7343 16.8503 39.722 16.84 39.7084C16.8367 39.7038 16.8348 39.6984 16.8329 39.693C16.831 39.6875 16.8292 39.6821 16.8258 39.6775C14.9575 37.2767 13.8333 34.27 13.8333 31ZM29.6642 30.6436C29.6806 30.6359 29.697 30.6283 29.7133 30.6209C31.1567 29.9659 32.1667 28.5184 32.1667 26.8334C32.1667 24.5359 30.2975 22.6667 28 22.6667C25.7025 22.6667 23.8333 24.5359 23.8333 26.8334C23.8333 28.5184 24.8433 29.9659 26.2867 30.6209L26.3347 30.6429C26.3704 30.6594 26.4062 30.6759 26.4425 30.6909C26.6517 30.7759 26.8683 30.8434 27.0925 30.8934C27.1319 30.9023 27.1721 30.9089 27.2123 30.9156C27.2324 30.9189 27.2525 30.9223 27.2725 30.9259C27.4925 30.965 27.7158 30.9909 27.9458 30.9942C27.9817 30.995 28.0183 30.995 28.0542 30.9942C28.2842 30.9909 28.5083 30.965 28.7275 30.9259L28.7575 30.9209C28.8075 30.9127 28.8575 30.9045 28.9075 30.8934C29.1317 30.8425 29.3483 30.7759 29.5575 30.6909C29.5934 30.6766 29.6288 30.6601 29.6642 30.6436L29.6642 30.6436ZM25.6025 32.1479L25.6025 32.148C25.6123 32.1515 25.6221 32.155 25.6317 32.1592C25.7842 32.2275 25.9417 32.2875 26.1008 32.3425C26.1125 32.3463 26.124 32.3507 26.1354 32.355C26.1469 32.3594 26.1583 32.3638 26.17 32.3675C26.7467 32.5592 27.36 32.6667 28 32.6667C28.6392 32.6667 29.2533 32.5592 29.83 32.3684C29.844 32.3639 29.858 32.3585 29.872 32.3531C29.8813 32.3495 29.8907 32.3459 29.9 32.3425C30.0592 32.2875 30.2158 32.2275 30.3683 32.1592C30.3779 32.155 30.3877 32.1515 30.3975 32.148L30.3975 32.1479C30.4073 32.1444 30.4171 32.1409 30.4267 32.1367C33.835 32.9884 36.5908 35.6359 37.5867 39.0034C37.3042 39.3417 37.005 39.66 36.6933 39.9634C36.645 40.0107 36.5943 40.0554 36.5436 40.1002L36.5436 40.1002L36.5436 40.1003C36.5131 40.1272 36.4826 40.1542 36.4525 40.1817C36.2233 40.3934 35.9892 40.5984 35.7467 40.7909C35.6277 40.8851 35.5057 40.9744 35.3837 41.0635L35.3836 41.0636L35.3292 41.1034C35.1325 41.2475 34.9325 41.3859 34.7283 41.5175C34.5575 41.6275 34.3842 41.7325 34.2075 41.8342C34.0192 41.9425 33.8275 42.045 33.6342 42.1434C33.4433 42.24 33.2508 42.3359 33.055 42.4234C32.8583 42.5109 32.6575 42.5884 32.4567 42.665L32.392 42.6899L32.3918 42.69C32.2159 42.7577 32.0395 42.8256 31.8592 42.8842C31.6694 42.9458 31.4765 42.9969 31.2832 43.0482L31.1883 43.0734C31.1336 43.0878 31.0789 43.1027 31.0243 43.1176C30.8893 43.1544 30.7543 43.1912 30.6167 43.2209C30.3697 43.2736 30.1185 43.3103 29.8677 43.3468L29.8 43.3567C29.739 43.3654 29.6784 43.3756 29.6179 43.3859L29.6178 43.3859L29.6177 43.3859C29.5222 43.402 29.4266 43.4182 29.3292 43.4284C28.8908 43.4734 28.4475 43.5 28 43.5C27.5525 43.5 27.1092 43.4734 26.6708 43.4275C26.5734 43.4173 26.4778 43.4012 26.3822 43.3851L26.3822 43.385C26.3216 43.3748 26.2611 43.3646 26.2 43.3559C25.9258 43.3167 25.6525 43.2775 25.3833 43.22C25.2363 43.1883 25.0921 43.1489 24.9478 43.1095L24.9474 43.1094C24.9022 43.097 24.857 43.0847 24.8117 43.0725L24.7749 43.0629C24.5622 43.007 24.3496 42.9511 24.1408 42.8834C23.9672 42.8269 23.7978 42.7619 23.628 42.6967L23.6279 42.6966L23.5433 42.6642C23.3425 42.5875 23.1417 42.51 22.945 42.4225C22.7483 42.335 22.5567 42.24 22.3658 42.1425C22.1725 42.0442 21.9808 41.9425 21.7925 41.8334C21.6158 41.7317 21.4425 41.6267 21.2717 41.5167C21.0675 41.385 20.8675 41.2467 20.6708 41.1025L20.6391 41.0795L20.6391 41.0794C20.5089 40.9847 20.379 40.8902 20.2533 40.79C20.0108 40.5967 19.7767 40.3925 19.5475 40.1809C19.5163 40.1523 19.4848 40.1242 19.4533 40.0962L19.4532 40.0962C19.4038 40.0522 19.3545 40.0083 19.3067 39.9625C18.9958 39.6592 18.6958 39.3409 18.4133 39.0025C19.4092 35.635 22.165 32.9884 25.5733 32.1367C25.5829 32.1409 25.5927 32.1444 25.6025 32.1479ZM32.1417 30.935C35.1108 32.0717 37.5208 34.4067 38.755 37.3375C39.8567 35.4767 40.5 33.3142 40.5 31C40.5 24.1075 34.8925 18.5 28 18.5C21.1075 18.5 15.5 24.1075 15.5 31C15.5 33.3142 16.1433 35.4767 17.245 37.3375C18.4792 34.4059 20.8892 32.0717 23.8583 30.935C22.8133 29.8809 22.1667 28.4317 22.1667 26.8334C22.1667 23.6167 24.7833 21 28 21C31.2167 21 33.8333 23.6167 33.8333 26.8334C33.8333 28.4317 33.1867 29.8809 32.1417 30.935Z" fill="#0F8AEA"/>
<rect x="27.1667" y="34.3334" width="1.66667" height="1.66667" fill="#0F8AEA"/>
<rect x="27.1667" y="37.6666" width="1.66667" height="1.66667" fill="#0F8AEA"/>
</svg>
