<svg width="288" height="288" viewBox="0 0 288 288" fill="none" xmlns="http://www.w3.org/2000/svg">
<g id="utp/img-1">
<path id="Shape" fill-rule="evenodd" clip-rule="evenodd" d="M4.8 182.4H24V283.2C24 285.854 26.1456 288 28.8 288H57.6C60.2544 288 62.4 285.854 62.4 283.2V235.675L72.096 284.146C72.5424 286.382 74.5104 288 76.8 288H105.6C107.016 288 108.36 287.371 109.277 286.291C110.184 285.206 110.578 283.776 110.333 282.384L91.2 172.387V126.787L111.806 147.394C112.704 148.296 113.923 148.8 115.2 148.8H168C170.654 148.8 172.8 146.654 172.8 144V121.987L214.594 80.1936L207.806 73.4064L166.013 115.2H131.587L105.019 88.632C100.488 84.1008 94.4592 81.6 88.0464 81.6H81.072C87.312 75.4944 91.2 66.9984 91.2 57.6C91.2 39.0768 76.1232 24 57.6 24C39.0768 24 24 39.0768 24 57.6C24 66.9984 27.888 75.4944 34.1328 81.6H33.6C15.0768 81.6 0 96.6768 0 115.2V177.6C0 180.254 2.1456 182.4 4.8 182.4ZM33.6 57.6C33.6 44.3664 44.3664 33.6 57.6 33.6C70.8336 33.6 81.6 44.3664 81.6 57.6C81.6 70.8336 70.8336 81.6 57.6 81.6C44.3664 81.6 33.6 70.8336 33.6 57.6ZM33.6 91.2C20.3664 91.2 9.6 101.966 9.6 115.2V172.8H24V115.2H33.6V278.4H52.8V187.2C52.8 184.733 54.672 182.669 57.1248 182.424C59.5392 182.198 61.8192 183.84 62.304 186.259L80.736 278.4H99.8976L81.672 173.621C81.624 173.352 81.6 173.078 81.6 172.8V115.2C81.6 113.261 82.7664 111.504 84.5616 110.765C86.3616 110.021 88.4208 110.434 89.7936 111.806L117.187 139.2H163.2V124.8H129.6C128.323 124.8 127.104 124.296 126.206 123.394L98.232 95.4192C95.5152 92.6976 91.896 91.2 88.0464 91.2H33.6Z" fill="#92959D"/>
<path id="Path" d="M52.8 153.6H62.4V110.4H67.2V100.8H48V110.4H52.8V153.6Z" fill="#92959D"/>
<path id="Shape_2" fill-rule="evenodd" clip-rule="evenodd" d="M275.53 238.282C280.219 233.899 283.2 227.712 283.2 220.8C283.2 207.566 272.434 196.8 259.2 196.8C245.966 196.8 235.2 207.566 235.2 220.8C235.2 207.566 224.434 196.8 211.2 196.8C197.966 196.8 187.2 207.566 187.2 220.8C187.2 207.566 176.434 196.8 163.2 196.8C149.966 196.8 139.2 207.566 139.2 220.8C139.2 227.712 142.181 233.899 146.87 238.282C139.474 242.376 134.4 250.166 134.4 259.2V283.2C134.4 285.854 136.546 288 139.2 288H187.2H235.2H283.2C285.854 288 288 285.854 288 283.2V259.2C288 250.166 282.926 242.376 275.53 238.282ZM179.53 238.282C184.219 233.899 187.2 227.712 187.2 220.8C187.2 227.712 190.181 233.899 194.87 238.282C191.861 239.947 189.245 242.198 187.2 244.944C185.155 242.198 182.539 239.947 179.53 238.282ZM227.53 238.282C232.219 233.899 235.2 227.712 235.2 220.8C235.2 227.712 238.181 233.899 242.87 238.282C239.861 239.947 237.245 242.198 235.2 244.944C233.155 242.198 230.539 239.947 227.53 238.282ZM259.2 206.4C267.139 206.4 273.6 212.861 273.6 220.8C273.6 228.739 267.139 235.2 259.2 235.2C251.261 235.2 244.8 228.739 244.8 220.8C244.8 212.861 251.261 206.4 259.2 206.4ZM225.6 220.8C225.6 212.861 219.139 206.4 211.2 206.4C203.261 206.4 196.8 212.861 196.8 220.8C196.8 228.739 203.261 235.2 211.2 235.2C219.139 235.2 225.6 228.739 225.6 220.8ZM163.2 206.4C171.139 206.4 177.6 212.861 177.6 220.8C177.6 228.739 171.139 235.2 163.2 235.2C155.261 235.2 148.8 228.739 148.8 220.8C148.8 212.861 155.261 206.4 163.2 206.4ZM158.4 244.8C150.461 244.8 144 251.261 144 259.2V278.4H182.4V259.2C182.4 251.261 175.939 244.8 168 244.8H158.4ZM192 259.2C192 251.261 198.461 244.8 206.4 244.8H216C223.939 244.8 230.4 251.261 230.4 259.2V278.4H192V259.2ZM240 259.2V278.4H278.4V259.2C278.4 251.261 271.939 244.8 264 244.8H254.4C246.461 244.8 240 251.261 240 259.2Z" fill="#92959D"/>
<path id="Path_2" d="M278.4 110.4H268.8V139.2H259.2V86.4H249.6V139.2H240V120H230.4V139.2H220.8V100.8H211.2V139.2H201.6V120H192V139.2H182.4V148.8H288V139.2H278.4V110.4Z" fill="#92959D"/>
<path id="Shape_3" fill-rule="evenodd" clip-rule="evenodd" d="M177.6 67.2H105.6C103.661 67.2 101.904 66.0336 101.165 64.2384C100.421 62.4432 100.834 60.3792 102.206 59.0064L115.2 46.0128V24C115.2 10.7664 125.966 0 139.2 0H177.6C190.834 0 201.6 10.7664 201.6 24V43.2C201.6 56.4336 190.834 67.2 177.6 67.2ZM124.8 48C124.8 49.2768 124.296 50.496 123.394 51.3936L117.187 57.6H177.6C185.539 57.6 192 51.1392 192 43.2V24C192 16.0608 185.539 9.6 177.6 9.6H139.2C131.261 9.6 124.8 16.0608 124.8 24V48Z" fill="#0A76E5"/>
<rect id="Rectangle" x="134.4" y="19.2" width="48" height="9.6" fill="#0A76E5"/>
<rect id="Rectangle_2" x="134.4" y="38.4" width="48" height="9.6" fill="#0A76E5"/>
<rect id="Rectangle_3" x="220.8" y="19.2" width="67.2" height="9.6" fill="#92959D"/>
<rect id="Rectangle_4" x="220.8" y="38.4" width="67.2" height="9.6" fill="#92959D"/>
<rect id="Rectangle_5" x="264" y="57.6" width="24" height="9.6" fill="#92959D"/>
<rect id="Rectangle_6" x="220.8" y="158.4" width="67.2" height="9.6" fill="#92959D"/>
<rect id="Rectangle_7" x="240" y="177.6" width="9.6" height="9.6" fill="#92959D"/>
<rect id="Rectangle_8" x="259.2" y="177.6" width="9.6" height="9.6" fill="#92959D"/>
<rect id="Rectangle_9" x="278.4" y="177.6" width="9.6" height="9.6" fill="#92959D"/>
</g>
</svg>
