<svg width="288" height="288" viewBox="0 0 288 288" fill="none" xmlns="http://www.w3.org/2000/svg">
<g id="utp/img-3">
<path id="Shape" fill-rule="evenodd" clip-rule="evenodd" d="M76.8 48H4.8C2.1504 48 0 45.8496 0 43.2V4.8C0 2.1504 2.1504 0 4.8 0H110.4C113.05 0 115.2 2.1504 115.2 4.8V43.2C115.2 45.8496 113.05 48 110.4 48H97.9872L84.9936 60.9936C84.0768 61.9104 82.848 62.4 81.6 62.4C80.9808 62.4 80.3568 62.28 79.7616 62.0352C77.9712 61.2912 76.8 59.5392 76.8 57.6V48ZM105.6 9.6H9.6V38.4H81.6C84.2496 38.4 86.4 40.5504 86.4 43.2V46.0128L92.6064 39.8064C93.504 38.904 94.728 38.4 96 38.4H105.6V9.6Z" fill="#0B76E6"/>
<path id="Shape_2" fill-rule="evenodd" clip-rule="evenodd" d="M209.213 38.4H187.2C184.55 38.4 182.4 36.2496 182.4 33.6V4.8C182.4 2.1504 184.55 0 187.2 0H254.4C257.05 0 259.2 2.1504 259.2 4.8V33.6C259.2 36.2496 257.05 38.4 254.4 38.4H230.4V48C230.4 49.9392 229.229 51.6912 227.438 52.4352C226.843 52.68 226.219 52.8 225.6 52.8C224.352 52.8 223.123 52.3104 222.206 51.3936L209.213 38.4ZM249.6 9.6H192V28.8H211.2C212.472 28.8 213.696 29.304 214.594 30.2064L220.8 36.4128V33.6C220.8 30.9504 222.95 28.8 225.6 28.8H249.6V9.6Z" fill="#0B76E6"/>
<path id="Shape_3" fill-rule="evenodd" clip-rule="evenodd" d="M24 288V225.6C10.7664 225.6 0 214.834 0 201.6V129.6H9.6V169.666L16.4112 134.822C17.9424 126.514 23.7024 119.89 31.2192 116.918C23.88 110.746 19.2 101.515 19.2 91.2C19.2 72.672 34.272 57.6 52.8 57.6C71.328 57.6 86.4 72.672 86.4 91.2C86.4 100.598 82.512 109.094 76.272 115.2H89.2128L120 84.4128V52.8C120 50.1504 122.15 48 124.8 48H135.019C134.611 46.4448 134.4 44.832 134.4 43.2C134.4 32.6112 143.011 24 153.6 24C164.189 24 172.8 32.6112 172.8 43.2C172.8 44.832 172.589 46.4448 172.181 48H182.4C185.05 48 187.2 50.1504 187.2 52.8V75.744C187.2 77.64 186.082 79.3632 184.349 80.1312C182.611 80.8944 180.586 80.5776 179.179 79.3008C177.398 77.688 175.133 76.8 172.8 76.8C167.506 76.8 163.2 81.1056 163.2 86.4C163.2 91.6944 167.506 96 172.8 96C175.133 96 177.398 95.112 179.174 93.4992C180.586 92.2272 182.616 91.9056 184.344 92.6688C186.082 93.4368 187.2 95.1552 187.2 97.056V120C187.2 122.65 185.05 124.8 182.4 124.8H172.181C172.589 126.355 172.8 127.968 172.8 129.6C172.8 140.189 164.189 148.8 153.6 148.8C143.011 148.8 134.4 140.189 134.4 129.6C134.4 127.968 134.611 126.355 135.019 124.8H131.587L104.194 152.194C103.296 153.096 102.072 153.6 100.8 153.6H75.8544L68.3856 187.2H81.6H86.4H111.739L125.05 147.278L134.155 150.317L121.862 187.2H168V163.2C168 160.55 170.15 158.4 172.8 158.4H211.2V139.2C211.2 128.635 218.107 119.741 227.611 116.549C220.512 110.381 216 101.318 216 91.2C216 72.672 231.072 57.6 249.6 57.6C268.128 57.6 283.2 72.672 283.2 91.2C283.2 101.318 278.688 110.381 271.589 116.549C281.093 119.741 288 128.635 288 139.2V201.6C288 214.834 277.234 225.6 264 225.6V288H254.4V225.6H216V283.2C216 285.85 213.85 288 211.2 288H182.4C179.75 288 177.6 285.85 177.6 283.2V211.2C177.6 205.8 179.395 200.813 182.41 196.8H177.6H172.8H148.8V278.4H168V288H148.8H139.2H120V278.4H139.2V196.8H105.475C108.523 200.822 110.4 205.776 110.4 211.2V283.2C110.4 285.85 108.25 288 105.6 288H76.8C74.1504 288 72 285.85 72 283.2V225.6H38.4H33.6V288H24ZM249.6 67.2C236.366 67.2 225.6 77.9664 225.6 91.2C225.6 104.434 236.366 115.2 249.6 115.2C262.834 115.2 273.6 104.434 273.6 91.2C273.6 77.9664 262.834 67.2 249.6 67.2ZM177.6 168H216C218.65 168 220.8 165.85 220.8 163.2V139.2C220.8 131.261 227.261 124.8 235.2 124.8H264C271.939 124.8 278.4 131.261 278.4 139.2V201.6C278.4 209.539 271.939 216 264 216H211.2C208.55 216 206.4 218.15 206.4 220.8V278.4H187.2V211.2C187.2 203.261 193.661 196.8 201.6 196.8H244.8C247.45 196.8 249.6 194.65 249.6 192V148.8H240V187.2H177.6V168ZM142.944 57.6H129.6V84.4128L147.394 102.206C149.27 104.083 149.27 107.117 147.394 108.994L141.187 115.2H142.944C144.845 115.2 146.563 116.318 147.331 118.056C148.104 119.794 147.778 121.819 146.501 123.226C144.888 125.002 144 127.267 144 129.6C144 134.894 148.306 139.2 153.6 139.2C158.894 139.2 163.2 134.894 163.2 129.6C163.2 127.267 162.312 125.002 160.699 123.226C159.427 121.819 159.096 119.794 159.869 118.056C160.637 116.318 162.355 115.2 164.256 115.2H177.6V104.981C176.045 105.389 174.432 105.6 172.8 105.6C162.211 105.6 153.6 96.9888 153.6 86.4C153.6 75.8112 162.211 67.2 172.8 67.2C174.432 67.2 176.045 67.4112 177.6 67.8192V57.6H164.256C162.355 57.6 160.637 56.4816 159.869 54.7488C159.101 53.0112 159.422 50.9856 160.699 49.5792C162.312 47.7984 163.2 45.5328 163.2 43.2C163.2 37.9056 158.894 33.6 153.6 33.6C148.306 33.6 144 37.9056 144 43.2C144 45.5328 144.888 47.7984 146.501 49.5744C147.778 50.9808 148.104 53.0112 147.331 54.744C146.563 56.4816 144.845 57.6 142.944 57.6ZM28.8 91.2C28.8 77.9664 39.5664 67.2 52.8 67.2C66.0336 67.2 76.8 77.9664 76.8 91.2C76.8 104.434 66.0336 115.2 52.8 115.2C39.5664 115.2 28.8 104.434 28.8 91.2ZM25.8384 136.613L13.6368 199.066C12.8784 203.227 14.0064 207.533 16.7568 210.826C19.4928 214.114 23.52 216 27.792 216H38.4H76.8C79.4496 216 81.6 218.15 81.6 220.8V278.4H100.8V211.2C100.8 203.261 94.3392 196.8 86.4 196.8H81.6H62.4C60.9456 196.8 59.568 196.138 58.656 195C57.744 193.867 57.3984 192.379 57.7152 190.958L67.3152 147.758C67.8 145.565 69.7488 144 72 144H98.8128L126.206 116.606L137.213 105.6L124.8 93.1872L94.5936 123.394C93.696 124.296 92.472 124.8 91.2 124.8H40.032C33.072 124.8 27.1008 129.768 25.8384 136.613Z" fill="#92959D"/>
<rect id="Rectangle" x="19.2" y="19.2" width="19.2" height="9.6" fill="#0B76E6"/>
<rect id="Rectangle_2" x="48" y="19.2" width="9.6" height="9.6" fill="#0B76E6"/>
<rect id="Rectangle_3" x="67.2" y="19.2" width="9.6" height="9.6" fill="#0B76E6"/>
<rect id="Rectangle_4" x="86.4" y="19.2" width="9.6" height="9.6" fill="#0B76E6"/>
</g>
</svg>
