<svg width="288" height="288" viewBox="0 0 288 288" fill="none" xmlns="http://www.w3.org/2000/svg">
<g id="utp/img-4">
<path id="Shape" fill-rule="evenodd" clip-rule="evenodd" d="M278.4 244.8H283.2C285.854 244.8 288 246.95 288 249.6V264C288 277.234 277.234 288 264 288H24C10.7664 288 0 277.234 0 264V249.6C0 246.95 2.1456 244.8 4.8 244.8H14.4V81.6C14.4 68.3664 25.1664 57.6 38.4 57.6H206.4V67.2H38.4C30.4608 67.2 24 73.6608 24 81.6V244.8H110.4C112.219 244.8 113.88 245.827 114.691 247.454L118.166 254.4H169.834L173.304 247.454C174.12 245.827 175.781 244.8 177.6 244.8H268.8V81.6C268.8 73.6608 262.339 67.2 254.4 67.2H240V57.6H254.4C267.634 57.6 278.4 68.3664 278.4 81.6V244.8ZM264 278.4C271.939 278.4 278.4 271.939 278.4 264V254.4H180.566L177.096 261.346C176.28 262.973 174.619 264 172.8 264H115.2C113.381 264 111.72 262.973 110.909 261.346L107.434 254.4H9.6V264C9.6 271.939 16.0608 278.4 24 278.4H264Z" fill="#92959D"/>
<path id="Path" d="M192 76.8H38.4C35.7456 76.8 33.6 78.9504 33.6 81.6V230.4C33.6 233.05 35.7456 235.2 38.4 235.2H254.4C257.054 235.2 259.2 233.05 259.2 230.4V81.6C259.2 78.9504 257.054 76.8 254.4 76.8H230.4V86.4H249.6V225.6H235.2V105.6H225.6V225.6H216V153.6H206.4V225.6H196.8V129.6H187.2V225.6H177.6V172.8H168V225.6H158.4V153.6H148.8V225.6H139.2V201.6H129.6V225.6H120V182.4H110.4V225.6H100.8V158.4H91.2V225.6H81.6V168H72V225.6H62.4V201.6H52.8V225.6H43.2V86.4H192V76.8Z" fill="#92959D"/>
<path id="Path_2" d="M120 120V129.6C185.083 129.6 238.656 79.5168 244.282 15.8688L255.806 27.3936L262.594 20.6064L243.394 1.40641C241.517 -0.47039 238.483 -0.47039 236.606 1.40641L217.406 20.6064L224.194 27.3936L234.542 17.0448C228.408 74.8272 179.386 120 120 120Z" fill="#0A74E5"/>
<rect id="Rectangle" x="62.4" y="100.8" width="48" height="9.6" fill="#0A74E5"/>
<rect id="Rectangle_2" x="62.4" y="120" width="48" height="9.6" fill="#0A74E5"/>
<rect id="Rectangle_3" x="62.4" y="139.2" width="9.6" height="9.6" fill="#0A74E5"/>
<path id="Path_3" d="M187.2 0V9.6H177.6V19.2H187.2V28.8H196.8V19.2H206.4V9.6H196.8V0H187.2Z" fill="#92959D"/>
<path id="Path_4" d="M153.6 19.2V28.8H144V38.4H153.6V48H163.2V38.4H172.8V28.8H163.2V19.2H153.6Z" fill="#92959D"/>
<rect id="Rectangle_4" x="81.6" y="139.2" width="9.6" height="9.6" fill="#0A74E5"/>
<rect id="Rectangle_5" x="100.8" y="139.2" width="9.6" height="9.6" fill="#0A74E5"/>
</g>
</svg>
