<svg width="74" height="74" viewBox="0 0 74 74" fill="none" xmlns="http://www.w3.org/2000/svg">
<path fill-rule="evenodd" clip-rule="evenodd" d="M67.8333 0H6.16667C2.76637 0 0 2.76637 0 6.16667V67.8333C0 71.2336 2.76637 74 6.16667 74H67.8333C71.2336 74 74 71.2336 74 67.8333V6.16667C74 2.76637 71.2336 0 67.8333 0ZM44.4 48.1H2.46667V25.9H44.4V48.1ZM44.4 2.46667H6.16667C4.12673 2.46667 2.46667 4.12673 2.46667 6.16667V23.4333H44.4V2.46667ZM2.46667 67.8333V50.5667H44.4V71.5333H6.16667C4.12673 71.5333 2.46667 69.8733 2.46667 67.8333ZM67.8333 71.5333C69.8733 71.5333 71.5333 69.8733 71.5333 67.8333V6.16667C71.5333 4.12673 69.8733 2.46667 67.8333 2.46667H46.8667V71.5333H67.8333Z" fill="black"/>
<path d="M50.8012 22.3396H64.3875C65.0705 22.3396 65.6226 21.7875 65.6226 21.1044V16.1639H63.1524V19.8693H52.0363V8.75321H55.7417V6.28296H50.8012C50.1181 6.28296 49.566 6.83506 49.566 7.51808V21.1044C49.566 21.7875 50.1181 22.3396 50.8012 22.3396Z" fill="black"/>
<path d="M58.2893 14.5496L55.4844 11.7919L53.7547 13.4925L57.4245 17.1005C57.663 17.335 57.9762 17.4529 58.2893 17.4529C58.6025 17.4529 58.9157 17.335 59.1542 17.1005L67.717 8.68178L65.9873 6.9812L58.2893 14.5496Z" fill="black"/>
<path d="M63.1524 42.2089H52.0363V31.0928H55.7417V28.6226H50.8012C50.1181 28.6226 49.566 29.1747 49.566 29.8577V43.444C49.566 44.1271 50.1181 44.6792 50.8012 44.6792H64.3875C65.0705 44.6792 65.6226 44.1271 65.6226 43.444V38.5035H63.1524V42.2089Z" fill="black"/>
<path d="M58.2893 36.191L55.4844 33.4333L53.7547 35.1338L57.4245 38.7419C57.663 38.9764 57.9762 39.0943 58.2893 39.0943C58.6025 39.0943 58.9157 38.9764 59.1542 38.7419L67.717 30.3231L65.9873 28.6226L58.2893 36.191Z" fill="black"/>
<path fill-rule="evenodd" clip-rule="evenodd" d="M50.8012 51.6604H64.3875C65.0705 51.6604 65.6226 52.2125 65.6226 52.8955V66.4819C65.6226 67.1649 65.0705 67.717 64.3875 67.717H50.8012C50.1181 67.717 49.566 67.1649 49.566 66.4819V52.8955C49.566 52.2125 50.1181 51.6604 50.8012 51.6604ZM52.0363 65.2468H63.1524V54.1306H52.0363V65.2468Z" fill="black"/>
<rect x="4.88678" y="11.1699" width="16.0566" height="2.79245" fill="black"/>
<rect x="13.2642" y="35.6038" width="16.0566" height="2.79245" fill="black"/>
<rect x="25.8302" y="59.3396" width="16.0566" height="2.79245" fill="black"/>
</svg>
