<svg width="56" height="56" viewBox="0 0 56 56" fill="none" xmlns="http://www.w3.org/2000/svg">
<path fill-rule="evenodd" clip-rule="evenodd" d="M28.8333 56H3.83333C3.3725 56 3 55.63 3 55.174V39.4808C3 35.3824 6.36417 32.0472 10.5 32.0472H11.355C9.32333 30.5398 8 28.1429 8 25.4395V22.9616V19.6578C8 16.4696 10.6175 13.8761 13.8333 13.8761H25.5C25.9608 13.8761 26.3333 14.2461 26.3333 14.7021C26.3333 16.5357 25.465 18.1694 24.1175 19.2291C24.4758 20.1625 24.6667 21.1354 24.6667 22.1357V25.4395C24.6667 28.1429 23.3433 30.5398 21.3117 32.0472H22.1667C26.3025 32.0472 29.6667 35.3824 29.6667 39.4808V55.174C29.6667 55.63 29.2942 56 28.8333 56ZM14.6667 33.6991V34.1831L16.3333 35.835L18 34.1831V33.6991H14.6667ZM18.0933 38.455L19.5842 47.3208L16.3333 49.2552L13.0825 47.3217L14.5733 38.4558L16.3333 37.8735L18.0933 38.455ZM24.5825 15.528H13.8333C11.5358 15.528 9.66667 17.3806 9.66667 19.6578V22.0431C9.77001 22.0217 9.87251 21.9994 9.97334 21.9705C9.99425 21.9646 10.0153 21.9593 10.0363 21.954L10.0363 21.954C10.0713 21.9452 10.1061 21.9364 10.14 21.925C10.3267 21.8631 10.5092 21.7904 10.685 21.7037C10.6981 21.6974 10.7103 21.6901 10.7225 21.6828C10.7313 21.6775 10.7401 21.6722 10.7492 21.6673C10.9017 21.5889 11.0492 21.5021 11.19 21.4055C11.2228 21.3828 11.254 21.3585 11.2852 21.3341C11.3039 21.3195 11.3226 21.3049 11.3417 21.2907C11.4475 21.2106 11.5508 21.1272 11.6492 21.038C11.7017 20.9892 11.7525 20.9388 11.8025 20.8885C11.8917 20.7976 11.9775 20.7026 12.0583 20.6035L12.0738 20.5845C12.1136 20.5356 12.1532 20.487 12.1908 20.4358C12.2717 20.326 12.345 20.2112 12.415 20.0931C12.4266 20.0734 12.4387 20.054 12.4508 20.0346L12.4508 20.0346L12.4508 20.0346L12.4508 20.0346C12.4716 20.0012 12.4924 19.9678 12.5108 19.9328C12.6042 19.7569 12.6892 19.5744 12.7575 19.3827C12.8742 19.0523 13.1892 18.8318 13.5425 18.8318H20.5C20.7233 18.8318 20.9417 18.8079 21.155 18.774C21.2267 18.7624 21.2978 18.7463 21.3688 18.7303L21.3688 18.7303L21.3689 18.7303L21.3983 18.7236C21.5267 18.6955 21.6525 18.6617 21.7758 18.622C21.87 18.5915 21.9633 18.5601 22.055 18.5229C22.1592 18.4808 22.26 18.4321 22.36 18.3817C22.381 18.3713 22.402 18.361 22.423 18.3508L22.4231 18.3508C22.4955 18.3155 22.5678 18.2804 22.6375 18.2388C23.6217 17.6523 24.3458 16.6785 24.5825 15.528ZM9.66667 25.4395V23.7281H9.66751C9.67459 23.7273 9.68125 23.7256 9.68792 23.724L9.68794 23.724C9.6946 23.7223 9.70126 23.7207 9.70834 23.7199C9.95334 23.6827 10.1933 23.6298 10.4283 23.5638C10.4839 23.548 10.5376 23.5286 10.5914 23.5091L10.5914 23.5091C10.6192 23.4991 10.6469 23.4891 10.675 23.4795C10.8367 23.4258 10.9975 23.3697 11.1533 23.3028C11.2235 23.2727 11.2907 23.2389 11.3583 23.2048L11.3584 23.2048L11.3587 23.2046C11.3802 23.1938 11.4017 23.183 11.4233 23.1723C11.5633 23.1029 11.7017 23.031 11.8358 22.9509C11.925 22.8972 12.0117 22.841 12.0975 22.7832C12.225 22.6973 12.3475 22.6073 12.4675 22.5123C12.5492 22.4479 12.6292 22.3826 12.7067 22.3141C12.8242 22.2108 12.9342 22.101 13.0433 21.9878L13.0923 21.9373C13.1455 21.8827 13.1986 21.8281 13.2483 21.7706C13.3608 21.6417 13.4625 21.5038 13.5633 21.3651C13.5832 21.3375 13.6038 21.3105 13.6243 21.2836C13.6554 21.2428 13.6864 21.2022 13.715 21.1594C13.8567 20.9438 13.9867 20.72 14.1 20.4846H20.5C20.69 20.4846 20.88 20.4747 21.0683 20.4557C21.1648 20.4462 21.259 20.4311 21.3537 20.416L21.4158 20.4061C21.4415 20.402 21.4672 20.3985 21.4929 20.3951C21.5346 20.3894 21.5762 20.3837 21.6175 20.3756C21.7642 20.3475 21.9067 20.3103 22.0492 20.2715C22.0628 20.2678 22.0765 20.2645 22.0902 20.2611C22.1107 20.2561 22.1312 20.251 22.1517 20.2451C22.3075 20.1996 22.46 20.1451 22.6108 20.0873C22.6188 20.0841 22.6269 20.0816 22.635 20.079C22.6438 20.0762 22.6526 20.0734 22.6608 20.0699C22.8858 20.7365 23 21.4287 23 22.1357V25.4395C23 29.0828 20.0092 32.0472 16.3333 32.0472C12.6575 32.0472 9.66667 29.0828 9.66667 25.4395ZM10.5 33.6991C7.28417 33.6991 4.66667 36.2926 4.66667 39.4808V54.3481H28V39.4808C28 36.2926 25.3825 33.6991 22.1667 33.6991H19.6667V34.5251C19.6667 34.7448 19.5792 34.9546 19.4225 35.1099L17.8767 36.642L19.0975 37.0451C19.3908 37.1417 19.605 37.3912 19.6558 37.6926L21.3225 47.6041C21.3783 47.9386 21.2233 48.274 20.9292 48.4483L16.7625 50.9261C16.63 51.0054 16.4817 51.0442 16.3333 51.0442C16.185 51.0442 16.0367 51.0054 15.9042 50.9253L11.7375 48.4474C11.4433 48.2732 11.2883 47.9378 11.3442 47.6033L13.0108 37.6918C13.0617 37.3903 13.2758 37.1409 13.5692 37.0442L14.79 36.6412L13.2442 35.109C13.0875 34.9546 13 34.744 13 34.5251V33.6991H10.5Z" fill="#0F88EA"/>
<path fill-rule="evenodd" clip-rule="evenodd" d="M48.82 38.8951C49.8617 37.7288 50.5 36.2008 50.5 34.5249C50.5 30.8816 47.5092 27.9172 43.8334 27.9172C40.1575 27.9172 37.1667 30.8816 37.1667 34.5249C37.1667 36.2008 37.805 37.7288 38.8467 38.8951C36.4334 39.6037 34.6667 41.8181 34.6667 44.4364V55.1739C34.6667 55.6298 35.0392 55.9998 35.5 55.9998H52.1667C52.6275 55.9998 53 55.6298 53 55.1739V44.4364C53 41.8181 51.2334 39.6037 48.82 38.8951ZM43.8334 29.5691C46.5909 29.5691 48.8334 31.7918 48.8334 34.5249C48.8334 36.3321 47.8492 37.9121 46.3875 38.7777C44.835 39.6962 42.8325 39.6962 41.28 38.7777C39.8175 37.9121 38.8334 36.3321 38.8334 34.5249C38.8334 31.7918 41.0759 29.5691 43.8334 29.5691ZM36.3334 44.4364V54.3479H51.3334V44.4364C51.3334 42.1592 49.4642 40.3066 47.1667 40.3066H47.0534C46.0984 40.8319 45.0009 41.1326 43.8334 41.1326C42.6659 41.1326 41.5692 40.8319 40.6134 40.3066H40.5C38.2025 40.3066 36.3334 42.1592 36.3334 44.4364Z" fill="#0F88EA"/>
<rect x="43" y="42.7845" width="1.66667" height="1.65192" fill="#0F88EA"/>
<rect x="43" y="46.0885" width="1.66667" height="1.65192" fill="#0F88EA"/>
</svg>
